<svg xmlns="http://www.w3.org/2000/svg" width="120" height="120" viewBox="0 0 120 120" fill="none">
  <rect width="120" height="120" rx="16" fill="#2C5F2D" fill-opacity="0.1"/>
  <path d="M82.5 87.5C82.5 89.5 81 91 79 91H41C39 91 37.5 89.5 37.5 87.5V32.5C37.5 30.5 39 29 41 29H61L82.5 50.5V87.5Z" fill="#2C5F2D"/>
  <path d="M61 29L82.5 50.5H66C63.5 50.5 61 48 61 45.5V29Z" fill="#97715B"/>
  <path d="M47.5 73C47.5 73.8284 48.1716 74.5 49 74.5H71C71.8284 74.5 72.5 73.8284 72.5 73C72.5 72.1716 71.8284 71.5 71 71.5H49C48.1716 71.5 47.5 72.1716 47.5 73Z" fill="white"/>
  <path d="M47.5 65C47.5 65.8284 48.1716 66.5 49 66.5H71C71.8284 66.5 72.5 65.8284 72.5 65C72.5 64.1716 71.8284 63.5 71 63.5H49C48.1716 63.5 47.5 64.1716 47.5 65Z" fill="white"/>
  <path d="M47.5 57C47.5 57.8284 48.1716 58.5 49 58.5H71C71.8284 58.5 72.5 57.8284 72.5 57C72.5 56.1716 71.8284 55.5 71 55.5H49C48.1716 55.5 47.5 56.1716 47.5 57Z" fill="white"/>
  <path d="M60 97.5C82.0914 97.5 100 79.5914 100 57.5C100 35.4086 82.0914 17.5 60 17.5C37.9086 17.5 20 35.4086 20 57.5C20 79.5914 37.9086 97.5 60 97.5Z" stroke="#2C5F2D" stroke-width="3" stroke-linecap="round" stroke-linejoin="round" stroke-dasharray="6 12"/>
</svg>